<svg xmlns="http://www.w3.org/2000/svg" width="1120" height="550" viewBox="0 0 1120 550">
<rect width="1120" height="550" fill="#fafbf9"/><path d="M185 0H1120V550H185Z" fill="#fff"/><path d="M185 0V550" stroke="#e7ebe4"/>
<g font-family="Arial, sans-serif"><rect x="23" y="24" width="26" height="26" rx="7" fill="#30654e"/><path d="M31 31h12v3h-8v3h6v3h-6v5h-4z" fill="#fff"/><text x="59" y="44" font-size="22" font-weight="700" fill="#294b3d">folio</text><text x="25" y="93" fill="#a0aaa0" font-size="10" letter-spacing="2">WORKSPACE</text>
<rect x="14" y="111" width="157" height="34" rx="6" fill="#e8eee3"/><g font-size="12"><text x="44" y="133" fill="#35644d" font-weight="bold">Overview</text><text x="44" y="176" fill="#87938a">Projects</text><text x="44" y="219" fill="#87938a">My tasks</text><text x="44" y="262" fill="#87938a">Team members</text><text x="44" y="305" fill="#87938a">Settings</text></g><g fill="none" stroke="#8ca18b" stroke-width="1.5"><rect x="26" y="122" width="9" height="9" rx="2"/><rect x="26" y="165" width="9" height="9" rx="1"/><path d="M26 210l3 3 6-7M26 256q4-9 9 0M26 293h9v9h-9z"/></g>
<rect x="18" y="428" width="148" height="72" rx="8" fill="#eff3e8"/><text x="30" y="451" font-size="11" fill="#54744e">A little space to create.</text><text x="30" y="476" font-size="10" fill="#8b9985">Your next idea starts here ↗</text>
<text x="219" y="37" font-size="11" fill="#8c9a8e">Workspace  /  Overview</text><circle cx="1069" cy="32" r="12" fill="#d6e5ce"/><text x="1063" y="36" font-size="10" fill="#5e8053">J</text><path d="M185 62H1120" stroke="#edf0eb"/>
<text x="220" y="108" font-size="27" font-weight="600" fill="#2e4d3d">Good morning, Jamie.</text><text x="220" y="133" font-size="12" fill="#8e9a90">A fresh perspective on everything you’re building.</text><rect x="961" y="93" width="125" height="33" rx="5" fill="#426e52"/><text x="979" y="114" font-size="11" fill="#fff">+  Create project</text>
<g stroke="#e6ebe2" fill="#fff"><rect x="220" y="163" width="272" height="110" rx="8"/><rect x="516" y="163" width="272" height="110" rx="8"/><rect x="812" y="163" width="274" height="110" rx="8"/></g>
<g font-size="11" fill="#89958a"><text x="239" y="189">ACTIVE PROJECTS</text><text x="535" y="189">TASKS COMPLETED</text><text x="831" y="189">TEAM PRODUCTIVITY</text></g><g font-size="32" fill="#34503e"><text x="239" y="233">12</text><text x="535" y="233">84</text><text x="831" y="233">92<tspan font-size="19">%</tspan></text></g><g font-size="10" fill="#739760"><text x="240" y="254">↗ 2 new this month</text><text x="536" y="254">↗ 18% from last month</text><text x="832" y="254">↗ 6% from last month</text></g>
<path d="M375 232l14-10 15 3 14-18 15 4 17-20 17 1" fill="none" stroke="#97b584" stroke-width="2"/><g fill="#c0d4b1"><rect x="676" y="221" width="9" height="20" rx="2"/><rect x="691" y="209" width="9" height="32" rx="2"/><rect x="706" y="216" width="9" height="25" rx="2"/><rect x="721" y="198" width="9" height="43" rx="2"/><rect x="736" y="185" width="9" height="56" rx="2"/></g><circle cx="1026" cy="217" r="24" fill="none" stroke="#edf0e7" stroke-width="8"/><circle cx="1026" cy="217" r="24" fill="none" stroke="#97b780" stroke-width="8" stroke-dasharray="133 151" transform="rotate(-90 1026 217)"/>
<text x="220" y="313" font-size="16" fill="#3a5543" font-weight="600">Recent projects</text><text x="1018" y="313" font-size="11" fill="#93a287">View all ↗</text><rect x="220" y="333" width="866" height="32" fill="#f4f6f0" rx="4"/><g font-size="10" fill="#9ba696"><text x="236" y="354">PROJECT NAME</text><text x="591" y="354">STATUS</text><text x="754" y="354">PROGRESS</text><text x="968" y="354">DUE DATE</text></g>
<g stroke="#edf0e8"><path d="M220 416H1086M220 468H1086M220 520H1086"/></g><g fill="#e9eedf"><rect x="235" y="379" width="24" height="24" rx="5"/><rect x="235" y="431" width="24" height="24" rx="5"/><rect x="235" y="483" width="24" height="24" rx="5"/></g><g font-size="12" fill="#5c6e5a"><text x="274" y="396">Website redesign</text><text x="274" y="448">Brand identity</text><text x="274" y="500">Mobile experience</text></g><g fill="#ebf1e5"><rect x="588" y="380" width="77" height="23" rx="12"/><rect x="588" y="432" width="77" height="23" rx="12"/><rect x="588" y="484" width="77" height="23" rx="12"/></g><g font-size="9" fill="#779668"><text x="600" y="395">In progress</text><text x="601" y="447">In review</text><text x="600" y="499">In progress</text></g><g stroke="#e8eee2" stroke-width="5" stroke-linecap="round"><path d="M759 392H891M759 444H891M759 496H891"/></g><g stroke="#a3bf8d" stroke-width="5" stroke-linecap="round"><path d="M759 392H850M759 444H876M759 496H812"/></g><g font-size="11" fill="#9aa48f"><text x="969" y="396">Sep 18, 2026</text><text x="969" y="448">Sep 21, 2026</text><text x="969" y="500">Sep 28, 2026</text></g></g></svg>
